<svg width="50" height="50" viewBox="0 0 50 50" fill="none" xmlns="http://www.w3.org/2000/svg">
<path d="M34.72 24.7143C34.6945 25.0023 34.5501 25.2752 34.31 25.4892L22.7903 35.8218C22.6498 35.948 22.4799 36.0506 22.2903 36.1237C22.1007 36.1969 21.8951 36.2392 21.6852 36.2482C21.4753 36.2572 21.2653 36.2327 21.0672 36.1762C20.869 36.1197 20.6866 36.0322 20.5303 35.9188C20.374 35.8054 20.2469 35.6682 20.1563 35.5151C20.0657 35.362 20.0134 35.196 20.0022 35.0266C19.9911 34.8572 20.0214 34.6876 20.0915 34.5277C20.1615 34.3677 20.2699 34.2205 20.4104 34.0943L30.9701 24.6255L20.4104 15.1566C20.2699 15.0305 20.1615 14.8832 20.0915 14.7233C20.0214 14.5633 19.9911 14.3938 20.0022 14.2244C20.0134 14.055 20.0657 13.889 20.1563 13.7359C20.2469 13.5828 20.374 13.4456 20.5303 13.3322C20.6866 13.2187 20.869 13.1313 21.0672 13.0747C21.2653 13.0182 21.4753 12.9938 21.6852 13.0028C21.8951 13.0118 22.1007 13.0541 22.2903 13.1272C22.4799 13.2004 22.6498 13.303 22.7903 13.4292L34.31 23.7617C34.454 23.8902 34.5645 24.0407 34.6349 24.2044C34.7053 24.368 34.7343 24.5414 34.72 24.7143Z" fill="black" fill-opacity="0.6"/>
<circle cx="25" cy="25" r="24.5" stroke="black" stroke-opacity="0.6"/>
</svg>
