<svg width="50" height="50" viewBox="0 0 50 50" fill="none" xmlns="http://www.w3.org/2000/svg">
<path d="M16.0035 24.5357C16.029 24.2477 16.1734 23.9748 16.4135 23.7608L27.9332 13.4282C28.0737 13.302 28.2436 13.1994 28.4332 13.1263C28.6228 13.0531 28.8284 13.0108 29.0383 13.0018C29.2482 12.9928 29.4582 13.0173 29.6563 13.0738C29.8545 13.1303 30.0369 13.2178 30.1932 13.3312C30.3495 13.4446 30.4766 13.5818 30.5672 13.7349C30.6578 13.888 30.7101 14.054 30.7213 14.2234C30.7324 14.3928 30.7021 14.5624 30.632 14.7223C30.562 14.8823 30.4536 15.0295 30.3131 15.1557L19.7534 24.6245L30.3131 34.0934C30.4536 34.2195 30.562 34.3668 30.632 34.5267C30.7021 34.6867 30.7324 34.8562 30.7213 35.0256C30.7101 35.195 30.6578 35.361 30.5672 35.5141C30.4766 35.6672 30.3495 35.8044 30.1932 35.9178C30.0369 36.0313 29.8545 36.1187 29.6563 36.1753C29.4582 36.2318 29.2482 36.2562 29.0383 36.2472C28.8284 36.2382 28.6228 36.1959 28.4332 36.1228C28.2436 36.0496 28.0737 35.947 27.9332 35.8208L16.4135 25.4883C16.2695 25.3598 16.1591 25.2093 16.0886 25.0456C16.0182 24.882 15.9892 24.7086 16.0035 24.5357Z" fill="black" fill-opacity="0.6"/>
<circle cx="25" cy="25" r="25" fill="black" fill-opacity="0.3"/>
<circle cx="25" cy="25" r="24.5" stroke="black" stroke-opacity="0.6"/>
</svg>
