<svg width="30" height="30" viewBox="0 0 30 30" fill="none" xmlns="http://www.w3.org/2000/svg">
<path d="M11.1426 3.27832C6.77424 3.27847 3.27847 6.77424 3.27832 11.1426C3.27832 15.511 6.77415 19.0067 11.1426 19.0068C15.5111 19.0068 19.0068 15.5111 19.0068 11.1426C19.0067 6.77415 15.511 3.27832 11.1426 3.27832ZM19.0068 20.0117L18.4023 19.4072L18.2969 19.4971C16.3685 21.1379 13.8653 22.1357 11.1426 22.1357C8.40941 22.1357 5.78111 21.1178 3.76465 19.292L3.37012 18.916C1.30856 16.8545 0.150391 14.0581 0.150391 11.1426C0.15046 8.40932 1.16818 5.78114 2.99414 3.76465L3.37012 3.37012C5.43161 1.30862 8.22719 0.150465 11.1426 0.150391C13.8758 0.150391 16.504 1.16829 18.5205 2.99414L18.916 3.37012C20.9774 5.43159 22.1357 8.22729 22.1357 11.1426C22.1357 13.8653 21.1379 16.3685 19.4971 18.2969L19.4072 18.4023L20.0117 19.0068H21.3662L29.7871 27.4277L27.4277 29.7871L19.0068 21.3662V20.0117Z" fill="#10472C" stroke="#FAF9F8" stroke-width="0.3"/>
</svg>
