<svg width="27" height="32" viewBox="0 0 27 32" fill="none" xmlns="http://www.w3.org/2000/svg">
<path d="M13.5 0.150391C17.6149 0.150391 20.8496 3.43308 20.8496 7.61914V7.76953H24C25.5649 7.76953 26.8496 9.07141 26.8496 10.667V28.9521C26.8496 30.5477 25.5649 31.8496 24 31.8496H3C1.43506 31.8496 0.150391 30.5477 0.150391 28.9521V10.667C0.150391 9.07141 1.43506 7.76953 3 7.76953H6.15039V7.61914C6.15039 3.43308 9.38506 0.150391 13.5 0.150391ZM2.84961 29.1025H24.1504V10.5166H2.84961V29.1025ZM8.85352 12.3408C8.92756 14.9381 10.9146 16.9121 13.5 16.9121C16.0854 16.9121 18.0724 14.9381 18.1465 12.3408H20.8467C20.7703 16.4549 17.5655 19.6592 13.5 19.6592C9.43447 19.6592 6.22973 16.4549 6.15332 12.3408H8.85352ZM13.5 2.89746C10.8649 2.89746 8.84961 4.94806 8.84961 7.61914V7.76953H18.1504V7.61914C18.1504 4.94806 16.1351 2.89746 13.5 2.89746Z" fill="#10472C" stroke="#FAF9F8" stroke-width="0.3"/>
</svg>
