<svg xmlns="http://www.w3.org/2000/svg" width="208.99376mm" height="293.92175mm" viewBox="0 0 208.99376 293.92175"><defs><linearGradient id="a" x1="0" x2="1" y1="0" y2="0" gradientTransform="rotate(90 -253.187 433.98) scale(19.28496)" gradientUnits="userSpaceOnUse" spreadMethod="pad"><stop offset="0" style="stop-opacity:1;stop-color:#8dab2d"/><stop offset="0.00709912" style="stop-opacity:1;stop-color:#8dab2d"/><stop offset="0.735962" style="stop-opacity:1;stop-color:#758b30"/><stop offset="0.73818882" style="stop-opacity:1;stop-color:#758b30"/><stop offset="0.853928" style="stop-opacity:1;stop-color:#567234"/><stop offset="1" style="stop-opacity:1;stop-color:#567234"/></linearGradient></defs><path d="M0 0c.344-.266.683-.53 1.037-.792C.683-.53.344-.266 0 0" style="fill:#1b1b1a;fill-opacity:1;fill-rule:nonzero;stroke:none" transform="matrix(1.70847 0 0 -1.70847 40.565 186.542)"/><path d="M0 0h-.003A62.204 62.204 0 0 1 0 0" style="fill:#1b1b1a;fill-opacity:1;fill-rule:nonzero;stroke:none" transform="matrix(1.70847 0 0 -1.70847 49.637 192.821)"/><path d="M0 0" style="fill:#1b1b1a;fill-opacity:1;fill-rule:nonzero;stroke:none" transform="matrix(1.70847 0 0 -1.70847 71.861 203.09)"/><path d="M0 0c6.478 1.02 14.035 2.115 19.27 2.652 5.155.533 12.864-.111 25.436-.269a62.815 62.815 0 0 1-3.295 2.756c-10.273.235-23.096.636-30.545.694-10.904.074-33.092.11-35.646.136-1.491.022-4.837-.125-8.39-.401A59.716 59.716 0 0 1-38.816.671c4.634-.018 9.786-.294 16.849-.927C-9.175-1.386-6.47-1.013 0 0" style="fill:#3b5f28;fill-opacity:1;fill-rule:nonzero;stroke:none" transform="matrix(1.70847 0 0 -1.70847 97.534 30.947)"/><path d="M0 0c6.887.105 26.599.32 39.364.233a60.69 60.69 0 0 1-6.223 3.54c-5.468-.277-10.267-.526-12.646-.519-5.813.017-24.68-.433-31.553-.886-3.671-.239-8.633-.45-13.105-.524A61.162 61.162 0 0 1-26.981.117C-19.279.016-7.591-.125 0 0" style="fill:#2e4f21;fill-opacity:1;fill-rule:nonzero;stroke:none" transform="matrix(1.70847 0 0 -1.70847 93.368 17.097)"/><path d="M0 0c9.833-.341 32.537-.233 42.358-.383.736-.009 1.922-.02 3.473-.039a61.479 61.479 0 0 1-5.343 6.406c-5.205.337-9.02.832-10.88.875-11.1.266-15.792-.235-24.981-1.438-9.189-1.195-15.453-2.591-19.263-2.646-3.814-.055-16.246 1.111-23.2 1.851-3.249.333-7.326-.053-11.383-.414a61.906 61.906 0 0 1-4.656-5.967c8.496.333 17.362.673 22.683.906C-21.955-.439-9.829.349 0 0" style="fill:#3d5623;fill-opacity:1;fill-rule:nonzero;stroke:none" transform="matrix(1.70847 0 0 -1.70847 110.167 42.416)"/><path d="M0 0c7.289-.312 15.65-.354 24.156.203 8.505.557 15.046.589 27.836-.544 12.788-1.138 15.493-.773 21.966.254 3.84.605 8.057 1.226 11.943 1.753 2.898-.034 7.831.869 11.187.847a62.707 62.707 0 0 1-2.225 3.649c-2.062-.144-4.754-.206-7.028-.512-14.143.158-27.035.336-31.824.405-17.279.246-25.853-.783-37.462-1.151-7.73-.248-15.118-.73-21.456-1.058-1.554.023-3.827-.179-5.775-.291a60.101 60.101 0 0 1-1.943-3.587c1.759.053 3.685.112 5.06.181C-3.59.128-1.701.08 0 0" style="fill:#385a26;fill-opacity:1;fill-rule:nonzero;stroke:none" transform="matrix(1.70847 0 0 -1.70847 29.102 57.588)"/><path d="M0 0c11.28-.246 23.59.365 39.3 1.988C51.784 3.285 61.935 3.56 74.639 3.32c2.26-.053 8.937-.154 17.726-.292a61.648 61.648 0 0 1-2.191 5.178c-4.256-.217-8.007-.669-13.16-1.337-9.184-1.192-15.45-2.602-19.268-2.656-3.81-.053-16.244 1.117-23.197 1.846-6.951.728-17.094.263-23.944-.578-6.846-.849-17.443.044-28.367.308-.566.014-1.816.023-3.122.025A60.019 60.019 0 0 1-22.962.175C-14.761.21-6.331.136 0 0" style="fill:#496c2c;fill-opacity:1;fill-rule:nonzero;stroke:none" transform="matrix(1.70847 0 0 -1.70847 43.992 73.224)"/><path d="M0 0c5.155.306 14.799 1.875 25.408 1.137C36.03.374 55.466-.721 58.637-.533c3.168.189 12.032 1.715 19.523 2.764 2.861.394 5.205.791 7.861 1.124-11.67.335-26.477 1.046-38.57 1.486-14.16.511-15.946.108-24.243-.203-6.959-.267-21.915-1.187-31.291-1.765A63.877 63.877 0 0 1-5.722-.056C-3.964-.143-2.516-.155 0 0" style="fill:#83a866;fill-opacity:1;fill-rule:nonzero;stroke:none" transform="matrix(1.70847 0 0 -1.70847 34.618 171.467)"/><path d="M0 0c-8.111-.649-29.994-3.181-39.861-3.334-2.507-.037-5.755-.003-9.331.063a58.823 58.823 0 0 1 3.013-1.741c8.274-.625 16.229-1.159 19.499-.968 4.883.279 25.957 1.886 40.033 1.988a61.254 61.254 0 0 1 5.217 3.41C11.371-.504 5.529.44 0 0" style="fill:#6e8954;fill-opacity:1;fill-rule:nonzero;stroke:none" transform="matrix(1.70847 0 0 -1.70847 133.68 187.232)"/><path d="M0 0c11.282-.252 23.414.349 39.109 1.977C54.812 3.594 74.508.805 83.791.623 84.962.602 92.726.52 95.901.566a60.287 60.287 0 0 1-1.517 6.358c-8.125.147-14.466 1.182-18.288 1.243-17.564.262-26.146-1.079-39.521-2.163C23.734 4.957 13.95 3.728 8.128 3.946c-4.426.152-13.906.096-31.334.07a56.76 56.76 0 0 1-.8-3.834C-15.032.239-7.071.157 0 0" style="fill:#50782f;fill-opacity:1;fill-rule:nonzero;stroke:none" transform="matrix(1.70847 0 0 -1.70847 42.631 86.233)"/><path d="M0 0c3.321-.06 12.051.543 20.436 1.075A60.771 60.771 0 0 1 1.414 4.108 60.707 60.707 0 0 1-22.767-.908C-17.653-.858-4.303.078 0 0" style="fill:#284019;fill-opacity:1;fill-rule:nonzero;stroke:none" transform="matrix(1.70847 0 0 -1.70847 101.62 7.018)"/><path d="M0 0c9.744.511 19.587 1.07 24.578 1.542 11.721 1.118 28.772.775 40.395.506 8.992-.2 25.832-.401 38.113-.533a61.265 61.265 0 0 1 3.527 6.694L-1.749 2.853A61.816 61.816 0 0 1 0 0" style="fill:#3d5d27;fill-opacity:1;fill-rule:nonzero;stroke:none" transform="matrix(1.70847 0 0 -1.70847 16.874 160.895)"/><path d="M0 0c6.912.562 32.799 3.748 47.51 2.402a60.161 60.161 0 0 1 4.345 4.403c-5.472-.45-11.223-.683-14.786-1.227-6.305-.974-8.578-2.65-26.218-1.129-17.637 1.514-25.201 2.018-33.91 1.292-3.293-.262-9.003-.722-14.165-.852A61.653 61.653 0 0 1-30.773-.86c.344-.263.685-.531 1.036-.79C-18.016-1.5-5.456-.454 0 0" style="fill:#728c57;fill-opacity:1;fill-rule:nonzero;stroke:none" transform="matrix(1.70847 0 0 -1.70847 93.14 185.075)"/><path d="M181.029 706.19c-12.832-1.032-20.959-1.764-26.788-1.552-2.866.1-18.698.09-33.911-.199a61.498 61.498 0 0 1-.466-7.447c0-1.074.032-2.14.092-3.197 2.267.007 4.324-.015 5.852-.089 28.45-1.254 32.265 4.671 40.843 5.248 4.794.322 12.466 5.85 15.979 5.334 5.608-.807 15.716-9.499 29.466-9.803 7.098-.157 11.045-.88 19.951-.887 2.357 0 5.387-.076 9.396-.169a51.929 51.929 0 0 0-.337-2.908c-7.955-.147-20.917.827-26.857.999-3.798.105-9.058-.1-14.593-.305-6.653-.245-13.699-.49-19.076-.196-9.841.544-30.924-.772-38.177-1.045-5.455-.206-13.597-.037-22.115-.019.097-.837.199-1.67.332-2.501 2.581.079 4.993.15 7.166.24 9.628.414 32.703-.242 39.717-.384 7.022-.166 37.39-.277 49.093.261 1.949.094 11.495.886 24.551 1.095a61.62 61.62 0 0 1 .504 11.544 62.135 62.135 0 0 1-.406 4.436 285.494 285.494 0 0 0-5.819.019c-14.141.202-32.968 1.794-46.376 1.794-2.98 0-5.689-.078-8.021-.269" style="fill:url(#a);stroke:none" transform="matrix(1.70847 0 0 -1.70847 -204.784 1294.963)"/><path d="M0 0c-5.069-.279-15.349-.682-23.752-.798A60.86 60.86 0 0 1-4.838-3.797a60.805 60.805 0 0 1 24.195 5.023C11.14.929 2.532.139 0 0" style="fill:#75815d;fill-opacity:1;fill-rule:nonzero;stroke:none" transform="matrix(1.70847 0 0 -1.70847 112.442 201.726)"/><path d="M0 0c-9.56-.002-40.043-.167-59.023.215-12.061.249-26.824.004-39.829-.299a61.74 61.74 0 0 1 1.141-4.387c7.885.065 15.847-.462 18.968-.268 6.451.41 31.027 1.003 36.956.778 5.92-.229 37.37 1.04 45.161 1.342 1.84.062 7.274.183 16.113.077.195.733.366 1.474.537 2.214C9.489-.347 2.48.006 0 0" style="fill:#4f742e;fill-opacity:1;fill-rule:nonzero;stroke:none" transform="matrix(1.70847 0 0 -1.70847 171.397 126.636)"/><path d="M0 0c-8.958.228-21.095-.538-32.134-.639-11.041-.092-34.985-.799-50.618-.589-7.28.096-14.382-.231-20.474-.609a60.532 60.532 0 0 1 2.126-5.016c9.789.248 18.712.438 24.894.52 20.064.292 45.755 1.899 59.044 2.14 6.744.128 18.924 1.113 26.491 1.39.785-.011 1.099.091 1.37.208.329.862.645 1.731.94 2.609-1.45-.053-2.928-.109-4.452-.16C4.68-.11 2.234-.06 0 0" style="fill:#334f20;fill-opacity:1;fill-rule:nonzero;stroke:none" transform="matrix(1.70847 0 0 -1.70847 182.894 137.307)"/><path d="M0 0h.782v-4.047c0-1.611-.791-2.102-1.832-2.102-.288 0-.637.062-.833.144l.116.637c.161-.062.394-.115.655-.115.7 0 1.112.314 1.112 1.501z" style="fill:#6a743f;fill-opacity:1;fill-rule:nonzero;stroke:none" transform="matrix(1.70847 0 0 -1.70847 6.463 283.414)"/><path d="M0 0h-2.352v-2.183H.27v-.658h-3.405v6.053h3.27v-.655h-2.487V.647H0Z" style="fill:#6a743f;fill-opacity:1;fill-rule:nonzero;stroke:none" transform="matrix(1.70847 0 0 -1.70847 15.962 288.901)"/><path d="M0 0h.782v-4.047c0-1.611-.791-2.102-1.831-2.102-.289 0-.641.062-.836.144l.116.637c.161-.062.394-.115.655-.115.7 0 1.114.314 1.114 1.501z" style="fill:#6a743f;fill-opacity:1;fill-rule:nonzero;stroke:none" transform="matrix(1.70847 0 0 -1.70847 20.858 283.414)"/><path d="M0 0v-3.581c0-1.357.603-1.931 1.41-1.931.898 0 1.474.595 1.474 1.931V0h.788v-3.527c0-1.86-.976-2.622-2.289-2.622-1.239 0-2.172.708-2.172 2.584V0Z" style="fill:#6a743f;fill-opacity:1;fill-rule:nonzero;stroke:none" transform="matrix(1.70847 0 0 -1.70847 26.336 283.414)"/><path d="M0 0h-1.84v.662h4.481V0H.79v-5.39H0Z" style="fill:#6a743f;fill-opacity:1;fill-rule:nonzero;stroke:none" transform="matrix(1.70847 0 0 -1.70847 41.312 284.545)"/><path d="M0 0h-2.352v-2.183H.273v-.658h-3.408v6.053H.137v-.655h-2.489V.647H0Z" style="fill:#6a743f;fill-opacity:1;fill-rule:nonzero;stroke:none" transform="matrix(1.70847 0 0 -1.70847 52.911 288.901)"/><path d="m0 0-.626-1.906h-.809L.622 4.146h.943l2.066-6.052h-.838L2.148 0Zm1.988.612-.595 1.742c-.138.393-.225.756-.314 1.103h-.017a16.567 16.567 0 0 0-.306-1.093L.161.612Z" style="fill:#6a743f;fill-opacity:1;fill-rule:nonzero;stroke:none" transform="matrix(1.70847 0 0 -1.70847 57.361 290.499)"/><path d="M0 0a5.64 5.64 0 0 0-1.86-.33c-.914 0-1.672.233-2.263.798-.523.504-.845 1.311-.845 2.253C-4.957 4.529-3.72 5.85-1.69 5.85c.7 0 1.249-.155 1.508-.28l-.186-.636c-.325.142-.727.256-1.339.256-1.476 0-2.436-.917-2.436-2.431 0-1.535.924-2.445 2.336-2.445.514 0 .865.074 1.044.162v1.805h-1.232v.631H0Z" style="fill:#6a743f;fill-opacity:1;fill-rule:nonzero;stroke:none" transform="matrix(1.70847 0 0 -1.70847 77.374 293.293)"/><path d="m0 0-.626-1.906h-.81L.621 4.146h.942l2.065-6.052h-.834L2.146 0Zm1.984.612-.59 1.742c-.135.393-.226.756-.313 1.103h-.022c-.09-.356-.186-.726-.305-1.093L.163.612Z" style="fill:#6a743f;fill-opacity:1;fill-rule:nonzero;stroke:none" transform="matrix(1.70847 0 0 -1.70847 81.668 290.499)"/><path d="M0 0c.396.08.96.128 1.5.128.832 0 1.373-.152 1.75-.494.305-.268.476-.682.476-1.148 0-.801-.503-1.328-1.141-1.547v-.028c.467-.159.745-.593.887-1.22.199-.843.345-1.429.472-1.664h-.81c-.099.185-.234.694-.406 1.451-.179.831-.503 1.146-1.214 1.178H.78v-2.629H0Zm.78-2.757h.8c.834 0 1.364.459 1.364 1.151 0 .782-.567 1.123-1.393 1.135-.376 0-.645-.04-.771-.075z" style="fill:#6a743f;fill-opacity:1;fill-rule:nonzero;stroke:none" transform="matrix(1.70847 0 0 -1.70847 89.975 283.55)"/><path d="M0 0c.477.074 1.042.128 1.663.128 1.122 0 1.92-.26 2.452-.754.539-.493.852-1.197.852-2.174 0-.989-.304-1.795-.87-2.352-.567-.565-1.501-.873-2.678-.873-.556 0-1.022.026-1.419.071Zm.781-5.351c.197-.037.485-.044.791-.044 1.672 0 2.579.936 2.579 2.567.008 1.431-.799 2.337-2.454 2.337-.402 0-.708-.033-.916-.082z" style="fill:#6a743f;fill-opacity:1;fill-rule:nonzero;stroke:none" transform="matrix(1.70847 0 0 -1.70847 98.808 283.551)"/><path d="M0 0h-2.355v-2.183H.271v-.658h-3.408v6.053H.134v-.655h-2.489V.647H0Z" style="fill:#6a743f;fill-opacity:1;fill-rule:nonzero;stroke:none" transform="matrix(1.70847 0 0 -1.70847 114.97 288.901)"/><path d="M0 0v6.053h.853l1.942-3.059c.446-.712.798-1.35 1.081-1.968l.024.01a26.764 26.764 0 0 0-.091 2.485v2.532h.734V0h-.789l-1.92 3.074C1.41 3.748 1.007 4.439.7 5.094l-.028-.009c.046-.763.066-1.488.066-2.496V0Z" style="fill:#6a743f;fill-opacity:1;fill-rule:nonzero;stroke:none" transform="matrix(1.70847 0 0 -1.70847 117.746 293.756)"/><path d="M0 0c.35-.212.864-.396 1.399-.396.8 0 1.268.426 1.268 1.034 0 .568-.324.89-1.142 1.205-.987.351-1.598.864-1.598 1.716 0 .94.784 1.642 1.958 1.642.618 0 1.07-.143 1.338-.294l-.216-.639a2.393 2.393 0 0 1-1.147.286c-.827 0-1.144-.489-1.144-.908 0-.564.371-.842 1.206-1.165 1.023-.396 1.543-.89 1.543-1.777 0-.935-.687-1.752-2.117-1.752-.583 0-1.224.177-1.544.394z" style="fill:#6a743f;fill-opacity:1;fill-rule:nonzero;stroke:none" transform="matrix(1.70847 0 0 -1.70847 132.078 292.129)"/><path d="M202.83 586.024h-.78v6.054h.78z" style="fill:#6a743f;fill-opacity:1;fill-rule:nonzero;stroke:none" transform="matrix(1.70847 0 0 -1.70847 -204.784 1294.963)"/><path d="M0 0v6.053h.854l1.939-3.059c.45-.712.799-1.35 1.089-1.968l.016.01a26.764 26.764 0 0 0-.091 2.485v2.532h.736V0h-.788L1.831 3.074c-.419.674-.824 1.365-1.129 2.02l-.03-.009c.046-.763.066-1.488.066-2.496V0Z" style="fill:#6a743f;fill-opacity:1;fill-rule:nonzero;stroke:none" transform="matrix(1.70847 0 0 -1.70847 145.105 293.756)"/><path d="M0 0c-.288-.146-.864-.297-1.602-.297C-3.31-.297-4.59.789-4.59 2.776c0 1.897 1.28 3.177 3.16 3.177.754 0 1.231-.16 1.437-.268l-.189-.638c-.295.144-.718.252-1.222.252-1.418 0-2.36-.908-2.36-2.498 0-1.48.853-2.431 2.325-2.431.476 0 .962.096 1.277.249z" style="fill:#6a743f;fill-opacity:1;fill-rule:nonzero;stroke:none" transform="matrix(1.70847 0 0 -1.70847 162.908 293.414)"/><path d="M0 0h-2.351v-2.183H.27v-.658h-3.405v6.053H.137v-.655h-2.488V.647H0Z" style="fill:#6a743f;fill-opacity:1;fill-rule:nonzero;stroke:none" transform="matrix(1.70847 0 0 -1.70847 170.439 288.901)"/><path d="M0 0h-.018l-1.015-.548-.153.602L.089.735h.676v-5.841H0Z" style="fill:#6a743f;fill-opacity:1;fill-rule:nonzero;stroke:none" transform="matrix(1.70847 0 0 -1.70847 179.493 285.033)"/><path d="M0 0c.172-.014.369 0 .639.028.458.064.891.253 1.222.568.387.349.663.863.771 1.551h-.028c-.324-.391-.792-.627-1.373-.627-1.053 0-1.723.793-1.723 1.786 0 1.106.798 2.079 1.993 2.079s1.931-.973 1.931-2.463C3.432 1.636 3 .739 2.426.183 1.977-.258 1.359-.527.728-.602.441-.645.189-.652 0-.645Zm1.428 4.781c-.663 0-1.139-.595-1.139-1.419 0-.726.439-1.238 1.12-1.238.532 0 .944.259 1.152.609a.545.545 0 0 1 .071.289c0 .997-.368 1.759-1.195 1.759z" style="fill:#6a743f;fill-opacity:1;fill-rule:nonzero;stroke:none" transform="matrix(1.70847 0 0 -1.70847 184.8 292.805)"/><path d="M0 0v-.521l-2.541-5.318h-.818L-.825-.676v.023h-2.861V0Z" style="fill:#6a743f;fill-opacity:1;fill-rule:nonzero;stroke:none" transform="matrix(1.70847 0 0 -1.70847 198.413 283.778)"/><path d="M0 0c.169-.014.368 0 .636.028a2.2 2.2 0 0 1 1.222.568c.389.349.667.863.773 1.551h-.027c-.325-.391-.79-.627-1.374-.627-1.05 0-1.724.793-1.724 1.786 0 1.106.8 2.079 1.995 2.079s1.933-.973 1.933-2.463c0-1.286-.435-2.183-1.009-2.739-.447-.441-1.07-.71-1.698-.785C.441-.645.188-.652 0-.645Zm1.428 4.781c-.665 0-1.14-.595-1.14-1.419 0-.726.439-1.238 1.122-1.238.53 0 .944.259 1.15.609a.536.536 0 0 1 .071.289c0 .997-.368 1.759-1.193 1.759z" style="fill:#6a743f;fill-opacity:1;fill-rule:nonzero;stroke:none" transform="matrix(1.70847 0 0 -1.70847 200.59 292.805)"/><path d="m0 0-2.233 2.257C-3.488 1.117-4.602.388-6.429.388c-2.736 0-4.627 2.277-4.627 5.016v.046c0 2.735 1.935 4.972 4.627 4.972 1.595 0 2.851-.687 4.081-1.805l2.237 2.575c-1.481 1.462-3.285 2.464-6.292 2.464-4.906 0-8.325-3.718-8.325-8.252v-.049c0-4.582 3.487-8.206 8.188-8.206C-3.466-2.851-1.642-1.761 0 0m-21.725 5.355c0-2.734-1.966-4.967-4.791-4.967-2.829 0-4.837 2.277-4.837 5.016v.046c0 2.735 1.964 4.972 4.79 4.972 2.829 0 4.838-2.284 4.838-5.018zm3.667.049v.046c0 4.532-3.534 8.206-8.458 8.206-4.928 0-8.505-3.718-8.505-8.252v-.049c0-4.534 3.532-8.206 8.458-8.206 4.925 0 8.505 3.716 8.505 8.255m-19.813-7.981V.617h-7.96v12.769h-3.51V-2.577Zm-15.025 0V.617h-7.96v12.769h-3.509V-2.577Zm-16.875 6.952v9.011h-3.513V4.24c0-2.532-1.3-3.834-3.442-3.834-2.144 0-3.441 1.349-3.441 3.946v9.034h-3.515V4.262c0-4.696 2.621-7.092 6.91-7.092 4.291 0 7.001 2.371 7.001 7.205m-18.538-2.231v.044c0 2.783-1.825 3.945-5.062 4.792-2.761.701-3.443 1.043-3.443 2.093v.045c0 .779.709 1.393 2.051 1.393 1.346 0 2.736-.592 4.15-1.575l1.825 2.646c-1.619 1.298-3.603 2.031-5.929 2.031-3.261 0-5.581-1.918-5.581-4.814v-.043c0-3.17 2.07-4.06 5.288-4.879 2.663-.687 3.211-1.145 3.211-2.032v-.046c0-.934-.863-1.505-2.301-1.505-1.823 0-3.328.75-4.767 1.938l-2.073-2.484c1.915-1.713 4.354-2.554 6.77-2.554 3.442 0 5.861 1.778 5.861 4.95m-20.042 3.211c0-2.734-1.958-4.967-4.787-4.967-2.825 0-4.833 2.277-4.833 5.016v.046c0 2.735 1.963 4.972 4.787 4.972 2.828 0 4.833-2.284 4.833-5.018zm3.673.049v.046c0 4.532-3.532 8.206-8.46 8.206-4.925 0-8.504-3.718-8.504-8.252v-.049c0-4.534 3.535-8.206 8.458-8.206 4.927 0 8.506 3.716 8.506 8.255" style="fill:#6a743f;fill-opacity:1;fill-rule:nonzero;stroke:none" transform="matrix(1.70847 0 0 -1.70847 208.994 262.992)"/></svg>